screens;
 
http://baypic.net/img-519fc42808454.html 
 
http://baypic.net/img-519fc42a568d3.html 
 
http://baypic.net/img-519fc42c9d46c.html 

Format : MPEG-4
Format profile : Base Media
Codec ID : isom
File size : 1.39 GiB
Duration : 38mn 53s
Overall bit rate mode : Variable
Overall bit rate : 5 114 Kbps
Encoded date : UTC 2013-05-22 16:12:45
Tagged date : UTC 2013-05-22 16:12:45
Writing application : Lavf53.32.100

Video
ID : 1
Format : AVC
Format/Info : Advanced Video Codec
Format profile : High@L3.0
Format settings, CABAC : Yes
Format settings, ReFrames : 4 frames
Codec ID : avc1
Codec ID/Info : Advanced Video Coding
Duration : 38mn 53s
Bit rate : 5 000 Kbps
Width : 1 920 pixels
Height : 1 080 pixels
Display aspect ratio : 16:9
Frame rate mode : Constant
Frame rate : 30.000 fps
Color space : YUV
Chroma subsampling : 4:2:0
Bit depth : 8 bits
Scan type : Progressive
Bits/(Pixel*Frame) : 0.080
Stream size : 1.36 GiB (98%)
Writing library : x264 core 120
Language : English
Encoded date : UTC 2013-05-22 16:12:45
Tagged date : UTC 2013-05-22 16:12:45

Audio
ID : 2
Format : AAC
Format/Info : Advanced Audio Codec
Format profile : LC
Codec ID : 40
Duration : 38mn 53s
Bit rate mode : Variable
Bit rate : 107 Kbps
Maximum bit rate : 160 Kbps
Channel(s) : 2 channels
Channel positions : Front: L R
Sampling rate : 48.0 KHz
Compression mode : Lossy
Delay relative to video : 67ms
Stream size : 29.8 MiB (2%)
Language : English
